HIERARCHY
ROOT Hips
{
	OFFSET 0.00000 0.00000 0.00000
	CHANNELS 6 Xposition Yposition Zposition Zrotation Yrotation Xrotation 
	JOINT LHipJoint
	{
		OFFSET 0 0 0
		CHANNELS 3 Zrotation Yrotation Xrotation
		JOINT LeftHip
		{
			OFFSET 1.17584 -1.63585 1.00361
			CHANNELS 3 Zrotation Yrotation Xrotation
			JOINT LeftKnee
			{
				OFFSET 2.23889 -6.15131 0.00000
				CHANNELS 3 Zrotation Yrotation Xrotation
				JOINT LeftAnkle
				{
					OFFSET 2.65161 -7.28525 0.00000
					CHANNELS 3 Zrotation Yrotation Xrotation
					JOINT LeftToe
					{
						OFFSET 0.24898 -0.68407 1.57235
						CHANNELS 3 Zrotation Yrotation Xrotation
						End Site
						{
							OFFSET 0.00000 -0.00000 0.85838
						}
					}
				}
			}
		}
	}
	JOINT RHipJoint
	{
		OFFSET 0 0 0
		CHANNELS 3 Zrotation Yrotation Xrotation
		JOINT RightHip
		{
			OFFSET -1.15592 -1.63585 1.00361
			CHANNELS 3 Zrotation Yrotation Xrotation
			JOINT RightKnee
			{
				OFFSET -2.34071 -6.43104 0.00000
				CHANNELS 3 Zrotation Yrotation Xrotation
				JOINT RightAnkle
				{
					OFFSET -2.59113 -7.11908 0.00000
					CHANNELS 3 Zrotation Yrotation Xrotation
					JOINT RightToe
					{
						OFFSET -0.17867 -0.49089 1.70981
						CHANNELS 3 Zrotation Yrotation Xrotation
						End Site
						{
							OFFSET -0.00000 -0.00000 0.89861
						}
					}
				}
			}
		}
	}
	JOINT lowerback
	{
		OFFSET 0 0 0
		CHANNELS 3 Zrotation Yrotation Xrotation
		JOINT Chest
		{
			OFFSET -0.02255 1.90764 -0.16605
			CHANNELS 3 Zrotation Yrotation Xrotation
			JOINT Chest2
			{
				OFFSET -0.00365 1.92150 -0.04898
				CHANNELS 3 Zrotation Yrotation Xrotation
				JOINT lowerneck
				{
					OFFSET 0 0 0
					CHANNELS 3 Zrotation Yrotation Xrotation
					JOINT Neck
					{
						OFFSET 0.00372 1.59170 0.08694
						CHANNELS 3 Zrotation Yrotation Xrotation
						JOINT Head
						{
							OFFSET 0.12558 1.58643 -0.08078
							CHANNELS 3 Zrotation Yrotation Xrotation
							End Site
							{
								OFFSET 0.04211 1.60835 -0.03803
							}
						}
					}
				}
				JOINT LeftCollar
				{
					OFFSET 0 0 0
					CHANNELS 3 Zrotation Yrotation Xrotation
					JOINT LeftShoulder
					{
						OFFSET 3.69324 0.96316 0.19077
CHANNELS 3 Zrotation Xrotation Yrotation
						JOINT LeftElbow
						{
OFFSET 0 -4.877960 -0.000000
CHANNELS 3 Zrotation Xrotation Yrotation
							JOINT LeftWrist
							{
OFFSET 0 -3.231690 0.000000
CHANNELS 3 Zrotation Xrotation Yrotation
								JOINT lhand
								{
									OFFSET 0 0 0
CHANNELS 3 Zrotation Xrotation Yrotation
									JOINT LFingers
									{
OFFSET 0 -0.731320 0.000000
CHANNELS 3 Zrotation Xrotation Yrotation
										End Site
										{
OFFSET 0 -0.589610 0.000000
										}
									}
								}
								JOINT LThumb
								{
OFFSET 0 0.000000 0.000000
CHANNELS 3 Zrotation Xrotation Yrotation
									End Site
									{
OFFSET 0 -0.598610 0.598610
									}
								}
							}
						}
					}
				}
				JOINT RightCollar
				{
					OFFSET 0 0 0
					CHANNELS 3 Zrotation Yrotation Xrotation
					JOINT RightShoulder
					{
						OFFSET -3.66103 0.75145 0.08281
CHANNELS 3 Zrotation Xrotation Yrotation
						JOINT RightElbow
						{
OFFSET 0 -4.914300 0.000000
CHANNELS 3 Zrotation Xrotation Yrotation
							JOINT RightWrist
							{
OFFSET 0 -3.290930 0.000000
CHANNELS 3 Zrotation Xrotation Yrotation
								JOINT rhand
								{
									OFFSET 0 0 0
CHANNELS 3 Zrotation Xrotation Yrotation
									JOINT RFingers
									{
OFFSET 0 -0.545120 0.000000
CHANNELS 3 Zrotation Xrotation Yrotation
										End Site
										{
OFFSET 0 -0.439490 0.000000
										}
									}
								}
								JOINT RThumb
								{
OFFSET 0 0.000000 0.000000
CHANNELS 3 Zrotation Xrotation Yrotation
									End Site
									{
OFFSET 0 -0.446200 0.446200
									}
								}
							}
						}
					}
				}
			}
		}
	}
}
MOTION
Frames: 4
Frame Time: 0.008333333333333333
12.683400 18.152900 -2.841200 -30.865300 -65.312500 -147.994000 0.000000 0.000000 0.000000 -21.029000 -0.674500 -33.400900 11.492900 18.168000 64.372300 0.169700 9.250000 9.188900 7.923500 16.062700 52.286600 0.000000 0.000000 0.000000 7.102500 1.807300 14.703700 -6.290000 -14.703600 46.134700 -0.556100 2.189200 15.050500 -2.290200 9.446100 -27.201100 4.954000 5.289300 -4.352700 2.735600 6.895500 -3.874900 0.293700 3.384500 -1.333300 -18.079600 4.238900 -10.703400 1.002700 6.589100 -11.538500 3.193700 3.738700 -2.504600 -0.000000 -0.000000 0.000000 139.636500 -33.403700 76.038600 29.221700 -40.216900 10.903600 83.300100 -68.902800 40.098900 0.000000 0.000000 0.000000 -7.125000 0.000000 0.000000 23.710000 -48.686700 34.238500 -0.000000 -0.000000 0.000000 -102.609200 -53.246700 -35.515100 -47.843600 -52.087900 -24.462300 -51.881500 6.469800 32.997100 0.000000 0.000000 0.000000 7.125000 0.000000 -0.000000 -37.728300 73.523000 26.421500
12.772255 18.135737 -2.916927 -38.381562 -69.636449 -140.421703 0.000000 0.000000 0.000000 -20.474192 0.347665 -33.619949 11.448676 18.147684 64.230222 0.254632 -0.681801 10.463345 3.442757 10.224880 30.765509 0.000000 0.000000 0.000000 7.419088 1.285974 14.115117 -6.313764 -14.725658 46.228209 -0.232677 0.232853 9.166218 -3.360485 11.225588 -33.080327 7.345944 7.431181 -3.446685 -3.653157 9.457557 -5.230746 -7.555254 4.347812 -1.705616 -0.160476 3.469483 -8.882168 -2.627913 4.603340 -11.873238 -0.766863 2.331808 -2.168826 0.000000 0.000000 0.000000 152.940840 -37.275425 81.611310 30.557380 -41.364848 11.776815 80.974534 -67.102333 40.059919 0.000000 0.000000 0.000000 -7.125000 0.000000 0.000000 22.266685 -46.304919 32.225006 0.000000 0.000000 0.000000 -97.542497 -49.448218 -43.823860 -39.433853 -47.689301 -18.032251 -47.899021 5.380629 31.880497 0.000000 0.000000 0.000000 7.125000 0.000000 0.000000 -27.218094 71.163015 17.368683
12.864937 18.094107 -3.008251 -50.975905 -73.148157 -128.124619 0.000000 0.000000 0.000000 -20.449368 1.188701 -33.358807 11.248553 18.054356 63.585833 -0.146410 -8.245907 8.026297 0.124357 0.647504 1.796373 0.000000 0.000000 0.000000 7.268062 0.756110 13.836840 -6.330853 -14.741521 46.295539 -0.131706 0.122866 6.836408 -2.097795 8.999775 -25.842452 5.776662 5.768147 -3.926203 -3.279302 7.296419 -4.597213 -6.362708 3.377365 -1.426897 2.352720 4.855328 -9.697765 -3.696376 6.281789 -12.124622 -1.489481 3.085977 -2.008729 0.000000 0.000000 0.000000 149.797460 -34.811328 76.761803 31.175714 -41.879944 12.187006 80.205185 -67.162549 39.393811 0.000000 0.000000 0.000000 -7.125000 0.000000 0.000000 22.258708 -45.130821 32.276056 0.000000 0.000000 0.000000 -107.320622 -52.730429 -51.950263 -34.455821 -44.380195 -14.444362 -49.022385 6.012503 32.702080 0.000000 0.000000 0.000000 7.125000 0.000000 0.000000 -30.341652 72.403414 20.314770
12.964287 18.046381 -3.100905 -68.525116 -75.602957 -110.821185 0.000000 0.000000 0.000000 -20.366368 1.943994 -33.148151 11.047279 17.958118 62.934996 -0.388993 -11.121503 6.057737 0.505359 -4.385459 -12.185603 0.000000 0.000000 0.000000 7.055216 0.279332 13.635152 -6.341305 -14.751107 46.336608 -0.048041 0.150379 4.130330 -1.144215 6.767029 -19.037277 5.580420 5.578619 -3.738065 -3.701109 7.052529 -4.544605 -6.726121 3.255436 -1.484015 2.082399 4.478284 -10.074026 -3.107539 5.776616 -11.957254 -1.245718 2.806112 -1.937955 0.000000 0.000000 0.000000 149.575848 -35.282345 76.050334 31.792118 -42.380145 12.600684 79.840307 -68.115958 39.064393 0.000000 0.000000 0.000000 -7.125000 0.000000 0.000000 22.254251 -44.552312 32.294036 0.000000 0.000000 0.000000 -114.353239 -51.929436 -57.969108 -30.229457 -41.072371 -11.566224 -50.814550 7.399614 33.387450 0.000000 0.000000 0.000000 7.125000 0.000000 0.000000 -35.300195 73.659680 24.716670
